<?xml version="1.0" standalone="no"?>
<!DOCTYPE svg PUBLIC "-//W3C//DTD SVG 20010904//EN"
 "http://www.w3.org/TR/2001/REC-SVG-20010904/DTD/svg10.dtd">
<svg version="1.0" xmlns="http://www.w3.org/2000/svg"
 width="1262.000000pt" height="500.000000pt" viewBox="0 0 1262.000000 500.000000"
 preserveAspectRatio="xMidYMid meet">

<g transform="translate(0.000000,500.000000) scale(0.100000,-0.100000)"
fill="#000000" stroke="none">
<path d="M3915 3499 c-220 -127 -410 -234 -421 -238 -12 -3 -294 -163 -628
-355 l-606 -349 0 -546 0 -547 174 -102 c96 -56 179 -102 184 -102 13 0 845
-489 857 -504 6 -7 199 -123 430 -259 l420 -247 3 498 c2 461 1 498 -15 510
-9 7 -298 177 -640 379 -343 201 -623 369 -623 372 0 3 287 171 638 373 l637
367 3 490 c1 270 -1 491 -5 491 -5 0 -188 -104 -408 -231z"/>
<path d="M7995 3364 c-220 -34 -383 -177 -424 -372 -6 -29 -11 -105 -11 -167
l0 -115 -110 0 -110 0 0 -150 0 -150 110 0 110 0 0 -505 0 -505 200 0 200 0 0
505 0 505 150 0 150 0 0 150 0 150 -150 0 -150 0 0 103 c1 139 32 206 113 236
40 15 125 14 181 -3 l46 -14 -2 156 -3 156 -30 8 c-35 10 -227 18 -270 12z"/>
<path d="M9860 2370 l0 -970 200 0 200 0 0 970 0 970 -200 0 -200 0 0 -970z"/>
<path d="M10727 3324 c-94 -29 -158 -129 -141 -222 28 -158 223 -232 370 -142
81 51 112 176 66 267 -48 93 -173 134 -295 97z"/>
<path d="M5657 2729 c-98 -23 -177 -91 -229 -198 l-33 -66 -3 123 -3 122 -199
0 -200 0 0 -655 0 -655 200 0 200 0 0 328 c0 341 7 423 42 504 25 59 101 130
156 146 54 16 139 15 198 -3 27 -8 50 -15 52 -15 1 0 2 83 2 184 l0 184 -31 6
c-42 8 -105 6 -152 -5z"/>
<path d="M6397 2725 c-103 -17 -222 -49 -289 -77 l-48 -20 0 -149 c0 -82 3
-149 8 -149 4 0 23 10 42 22 113 69 285 113 414 106 97 -5 154 -31 186 -84 24
-38 40 -124 22 -124 -31 0 -397 -53 -451 -66 -147 -33 -278 -133 -316 -241
-40 -113 -36 -270 10 -367 30 -64 107 -139 172 -167 76 -32 181 -45 269 -31
123 19 206 70 292 177 l31 40 1 -97 0 -98 191 0 190 0 -3 463 c-4 395 -7 470
-21 520 -51 176 -163 287 -333 332 -85 23 -261 27 -367 10z m343 -772 c0 -84
-11 -125 -49 -185 -41 -65 -104 -100 -189 -105 -56 -4 -74 -1 -112 19 -55 29
-84 75 -84 138 0 106 64 154 243 181 64 9 133 18 154 18 l37 1 0 -67z"/>
<path d="M8817 2725 c-103 -17 -222 -49 -289 -77 l-48 -20 0 -149 c0 -82 3
-149 8 -149 4 0 23 10 42 22 113 69 285 113 414 106 97 -5 154 -31 186 -84 24
-38 40 -124 22 -124 -31 0 -397 -53 -451 -66 -147 -33 -278 -133 -316 -241
-40 -113 -36 -270 10 -367 30 -64 107 -139 172 -167 76 -32 181 -45 269 -31
123 19 206 70 292 177 l31 40 1 -97 0 -98 191 0 190 0 -3 463 c-4 395 -7 470
-21 520 -51 176 -163 287 -333 332 -85 23 -261 27 -367 10z m343 -772 c0 -84
-11 -125 -49 -185 -41 -65 -104 -100 -189 -105 -56 -4 -74 -1 -112 19 -55 29
-84 75 -84 138 0 106 64 154 243 181 64 9 133 18 154 18 l37 1 0 -67z"/>
<path d="M12064 2726 c-113 -26 -204 -88 -286 -196 l-27 -35 -1 108 0 107
-200 0 -200 0 0 -655 0 -655 199 0 200 0 3 413 3 412 26 55 c14 30 39 68 55
84 88 88 241 87 317 -3 54 -64 57 -97 57 -548 l0 -413 201 0 200 0 -3 493 c-3
476 -4 494 -25 557 -64 190 -177 276 -373 286 -52 2 -109 -2 -146 -10z"/>
<path d="M10610 2055 l0 -655 200 0 200 0 0 655 0 655 -200 0 -200 0 0 -655z"/>
</g>
</svg>
